<svg width="28" height="24" viewBox="0 0 28 24" fill="none" xmlns="http://www.w3.org/2000/svg">
<path d="M8.78874 23.5C5.55374 23.5 2.53817 22.5591 0 20.9356C2.15499 21.0751 5.95807 20.7411 8.32358 18.4848C4.76508 18.3215 3.16026 15.5923 2.95094 14.426C3.25329 14.5426 4.6953 14.6826 5.50934 14.356C1.4159 13.3296 0.787928 9.73732 0.927477 8.64097C1.695 9.17749 2.99745 9.3641 3.50913 9.31744C-0.305207 6.58823 1.06703 2.48276 1.74151 1.59635C4.47882 5.38867 8.5812 7.51857 13.6564 7.63704C13.5607 7.21736 13.5102 6.78042 13.5102 6.33164C13.5102 3.11092 16.1134 0.5 19.3247 0.5C21.0025 0.5 22.5144 1.21275 23.5757 2.35284C24.6969 2.09011 26.3843 1.47507 27.2092 0.943205C26.7934 2.43611 25.4989 3.68149 24.7159 4.14308C24.7095 4.12731 24.7224 4.15878 24.7159 4.14308C25.4037 4.03904 27.2648 3.68137 28 3.18256C27.6364 4.02125 26.264 5.41573 25.1377 6.19642C25.3473 15.4381 18.2765 23.5 8.78874 23.5Z" fill="#47ACDF"/>
</svg>
